<svg width="20" height="16" xmlns="http://www.w3.org/2000/svg" xmlns:xlink="http://www.w3.org/1999/xlink" xmlns:svgjs="http://svgjs.com/svgjs" viewBox="0 0.027 20 15.946"><svg xmlns="http://www.w3.org/2000/svg" width="20" height="16" viewBox="1.545 1.802 17.809 14.199" fill="#fff"><path fill="#000" paint-order="stroke fill markers" fill-rule="evenodd" d="M19.353 3.483a7.436 7.436 0 0 1-2.098.564 3.61 3.61 0 0 0 1.606-1.983 7.406 7.406 0 0 1-2.32.87 3.681 3.681 0 0 0-2.667-1.132c-2.017 0-3.654 1.605-3.654 3.584 0 .281.033.556.095.817a10.436 10.436 0 0 1-7.53-3.745 3.516 3.516 0 0 0-.495 1.803c0 1.243.645 2.34 1.625 2.983a3.694 3.694 0 0 1-1.655-.448v.044c0 1.738 1.26 3.186 2.93 3.515a3.704 3.704 0 0 1-1.65.062c.466 1.424 1.815 2.46 3.414 2.49a7.425 7.425 0 0 1-4.538 1.534c-.295 0-.586-.016-.871-.05a10.48 10.48 0 0 0 5.6 1.61c6.72 0 10.396-5.462 10.396-10.199 0-.155-.004-.31-.011-.464a7.354 7.354 0 0 0 1.823-1.855z"/></svg></svg>